:version 1.10
:name ASF
:units
  mass 1
  length 1
  angle deg
:documentation
  ASF file generated by Kaydara
:root
  axis xyz
  order  tx ty tz rx ry rz
  position 0 0 0
  orientation 0 0 0
:bonedata
  begin
    id 1
    name SpineDummy
    direction 0.999998 -0.00179978 1.38929e-006
    length 3.60008
    axis 0 0 0 xyz
  end
  begin
    id 2
    name Spine
    direction 0.964365 0.262802 0.0305839
    length 8.13928
    axis 1.33928 -1.75354 15.2838 xyz
    dof rx ry rz
  end
  begin
    id 3
    name Spine1
    direction 0.811168 0.572065 0.12144
    length 7.14954
    axis 2.2224 -6.9761 35.2157 xyz
    dof rx ry rz
  end
  begin
    id 4
    name Neck
    direction 0 0 0
    length 0
    axis 2.2224 -6.9761 35.2157 xyz
    dof rx ry rz
  end
  begin
    id 5
    name HeadDummy
    direction 0.810939 0.572387 0.121455
    length 3.55534
    axis 2.2224 -6.9761 35.2157 xyz
  end
  begin
    id 6
    name Head
    direction 0.998226 -0.000232542 0.0595419
    length 7.35666
    axis -3.03688 -3.41352 -0.0133467 xyz
    dof rx ry rz
  end
  begin
    id 7
    name R_ClavicleDummy
    direction 0.531669 -0.194489 -0.824319
    length 2.49392
    axis 2.2224 -6.9761 35.2157 xyz
  end
  begin
    id 8
    name R_Clavicle
    direction -0.155119 0.0480802 -0.986725
    length 4.485
    axis -54.2764 80.6538 162.779 xyz
    dof rx ry rz
  end
  begin
    id 9
    name R_UpperArm
    direction -0.955567 0.200068 -0.216484
    length 10.1122
    axis -72.9943 12.5026 168.175 xyz
    dof rx ry rz
  end
  begin
    id 10
    name R_Forearm
    direction -0.61433 0.385743 0.688332
    length 9.39148
    axis -117.015 -43.4982 147.875 xyz
    dof rx ry rz
  end
  begin
    id 11
    name R_Hand
    direction -0.699429 0.0170333 0.714499
    length 3.66324
    axis -45.0303 -36.7097 175.478 xyz
    dof rx ry rz
  end
  begin
    id 12
    name L_ClavicleDummy
    direction 0.40287 -0.36502 0.839319
    length 2.49392
    axis 2.2224 -6.9761 35.2157 xyz
  end
  begin
    id 13
    name L_Clavicle
    direction -0.231271 -0.0726419 0.970174
    length 4.485
    axis 18.4357 -75.9711 -162.563 xyz
    dof rx ry rz
  end
  begin
    id 14
    name L_UpperArm
    direction -0.917494 0.144359 0.370629
    length 10.1122
    axis 56.0417 -21.7544 171.058 xyz
    dof rx ry rz
  end
  begin
    id 15
    name L_Forearm
    direction -0.496786 0.615074 -0.612281
    length 9.39148
    axis 89.8094 37.7546 128.927 xyz
    dof rx ry rz
  end
  begin
    id 16
    name L_Hand
    direction -0.409932 0.64962 -0.640274
    length 3.66324
    axis -0.424369 32.133 128.52 xyz
    dof rx ry rz
  end
  begin
    id 17
    name L_ThighDummy
    direction -1.84081e-006 1.87549e-006 1
    length 3.13049
    axis 0 0 0 xyz
  end
  begin
    id 18
    name L_Thigh
    direction -0.947739 0.307978 0.083308
    length 17.9961
    axis 173.219 -4.77873 161.998 xyz
    dof rx ry rz
  end
  begin
    id 19
    name L_Calf
    direction -0.728814 -0.684427 0.0197583
    length 13.3367
    axis 167.331 -1.13214 -136.799 xyz
    dof rx ry rz
  end
  begin
    id 20
    name L_Foot
    direction -0.9028 0.418719 0.0981191
    length 5.8674
    axis 163.436 11.5135 -155.37 xyz
    dof rx ry rz
  end
  begin
    id 21
    name L_Toe0
    direction -0.35341 0.886259 0.299411
    length 4.75286
    axis 169.316 -17.4222 111.74 xyz
    dof rx ry rz
  end
  begin
    id 22
    name R_ThighDummy
    direction 9.32778e-007 -8.82053e-007 -1
    length 3.13049
    axis 0 0 0 xyz
  end
  begin
    id 23
    name R_Thigh
    direction -0.925064 0.37528 -0.0585023
    length 17.9961
    axis -178.698 3.35385 157.919 xyz
    dof rx ry rz
  end
  begin
    id 24
    name R_Calf
    direction -0.68969 -0.718776 -0.0876886
    length 13.3367
    axis -160.504 5.03065 -133.817 xyz
    dof rx ry rz
  end
  begin
    id 25
    name R_Foot
    direction -0.857405 0.418858 -0.299022
    length 5.8674
    axis -161.328 4.38911 -154.413 xyz
    dof rx ry rz
  end
  begin
    id 26
    name R_Toe0
    direction -0.100745 0.952789 -0.286433
    length 4.75286
    axis 171.683 16.6445 96.0359 xyz
    dof rx ry rz
  end
:hierarchy
  begin
    root SpineDummy L_ThighDummy R_ThighDummy
    SpineDummy Spine
    Spine Spine1
    Spine1 Neck
    Neck HeadDummy R_ClavicleDummy L_ClavicleDummy
    HeadDummy Head
    R_ClavicleDummy R_Clavicle
    R_Clavicle R_UpperArm
    R_UpperArm R_Forearm
    R_Forearm R_Hand
    L_ClavicleDummy L_Clavicle
    L_Clavicle L_UpperArm
    L_UpperArm L_Forearm
    L_Forearm L_Hand
    L_ThighDummy L_Thigh
    L_Thigh L_Calf
    L_Calf L_Foot
    L_Foot L_Toe0
    R_ThighDummy R_Thigh
    R_Thigh R_Calf
    R_Calf R_Foot
    R_Foot R_Toe0
  end

:SAMPLES-PER-SECOND 30
:FULLY-SPECIFIED
:DEGREES
243
root  -1.99697 33.005 12.402 -85.3003 -4.09824 85.6894
Spine  -5.5814 -9.72901 -11.114
Spine1  -4.59974 15.6127 2.05689
Neck  3.97569e-016 0 -2.38542e-015
Head  24.5881 -3.71814 18.4766
R_Clavicle  0.401295 -20.6171 0.727929
R_UpperArm  20.7699 -9.96711 40.9089
R_Forearm  22.3744 -29.3563 20.8458
R_Hand  -0.99897 9.28898 -19.0513
L_Clavicle  -0.326952 12.7922 -1.12572
L_UpperArm  -0.386595 -3.79214 2.79304
L_Forearm  -7.24504 23.6404 30.3599
L_Hand  -0.184076 -0.609603 -4.24738
L_Thigh  -3.71863 -1.78789 -24.1206
L_Calf  5.77195 -6.17091 34.9077
L_Foot  4.01966 6.7318 8.87839
L_Toe0  2.07242 -0.0143459 -4.74616
R_Thigh  7.86958 -5.38269 -1.95718
R_Calf  -3.56594 11.6022 38.6674
R_Foot  1.68072 0.62824 -13.9777
R_Toe0  -1.65469 -0.289148 -17.5707
244
root  -1.93817 32.8507 11.3339 -85.5069 -4.41184 86.3521
Spine  -6.2321 -10.4672 -10.5527
Spine1  -4.98412 19.1226 2.35826
Neck  3.97569e-016 0 -2.38542e-015
Head  25.6379 -4.40529 17.3126
R_Clavicle  0.401203 -20.164 1.03525
R_UpperArm  14.2776 -8.6084 41.1245
R_Forearm  27.518 -24.7278 20.5726
R_Hand  -1.00842 9.31912 -19.121
L_Clavicle  -0.337836 13.1583 -1.26062
L_UpperArm  -0.414424 -3.95853 3.8588
L_Forearm  -8.02173 24.2325 31.3133
L_Hand  -0.181052 -0.883648 -4.43997
L_Thigh  -4.18226 -0.679529 -26.6313
L_Calf  6.1722 -5.70249 35.8013
L_Foot  4.23823 6.3837 10.0959
L_Toe0  2.28518 -0.0256825 -4.56901
R_Thigh  5.44831 -3.53848 -1.66256
R_Calf  -1.10805 12.8356 41.3177
R_Foot  1.06078 -5.43672 -16.5203
R_Toe0  -1.78853 -0.272788 -17.3235
245
root  -1.80266 32.5988 10.2903 -86.57 -4.90993 87.2882
Spine  -6.31918 -10.1244 -9.78758
Spine1  -4.6894 21.6984 3.6026
Neck  3.97569e-016 0 -2.38542e-015
Head  26.6967 -5.33112 14.7587
R_Clavicle  0.404958 -19.8308 1.35612
R_UpperArm  11.989 -5.8996 39.4798
R_Forearm  28.7203 -22.0457 19.6664
R_Hand  -1.02882 9.11284 -19.2115
L_Clavicle  -0.372604 14.1138 -1.47186
L_UpperArm  -1.41116 -3.8758 4.95569
L_Forearm  -8.47201 25.058 32.6922
L_Hand  -0.176093 -1.38912 -4.87129
L_Thigh  -4.48461 0.332388 -27.538
L_Calf  5.9437 -4.42876 32.6434
L_Foot  4.39023 5.72892 11.5094
L_Toe0  3.88835 -0.176423 -3.14277
R_Thigh  2.74903 -1.27885 -1.47413
R_Calf  -0.775587 11.5406 38.4786
R_Foot  1.32121 -4.74566 -17.4413
R_Toe0  -1.78853 -0.272788 -17.3235
246
root  -1.65853 32.2328 9.23378 -88.7824 -5.26439 87.9742
Spine  -6.00099 -8.79668 -9.10311
Spine1  -4.01605 22.3084 5.31106
Neck  3.97569e-016 0 -2.38542e-015
Head  28.1953 -6.11466 11.7008
R_Clavicle  0.403852 -19.8628 1.29755
R_UpperArm  12.3348 -2.39438 36.3903
R_Forearm  27.3887 -20.4221 18.0047
R_Hand  -1.04312 8.84702 -19.2544
L_Clavicle  -0.399303 14.8281 -1.80359
L_UpperArm  -4.13208 -2.56719 6.64497
L_Forearm  -8.43759 26.0008 34.1522
L_Hand  -0.170815 -2.01264 -5.6086
L_Thigh  -3.78327 0.707925 -26.4039
L_Calf  4.34398 -3.28303 24.68
L_Foot  3.7326 3.16536 12.4526
L_Toe0  6.07233 -0.609129 -0.0954862
R_Thigh  -0.0487951 0.883043 -0.300415
R_Calf  -1.49454 9.26576 30.5646
R_Foot  0.639976 -2.95221 -10.7544
R_Toe0  -1.78853 -0.272788 -17.3235
247
root  -1.53779 31.8557 8.16017 -90.7968 -5.19425 88.349
Spine  -5.90702 -6.93505 -8.68081
Spine1  -3.79806 21.4998 6.52058
Neck  3.97569e-016 0 -2.38542e-015
Head  29.4925 -6.51172 9.99514
R_Clavicle  0.387282 -19.582 0.705904
R_UpperArm  13.6594 -0.388734 32.7139
R_Forearm  25.1618 -18.1898 15.8148
R_Hand  -1.03552 8.62397 -19.1614
L_Clavicle  -0.394381 14.8434 -2.35767
L_UpperArm  -6.99561 0.288898 9.30891
L_Forearm  -9.19095 27.2168 35.2647
L_Hand  -0.162668 -2.44167 -6.14052
L_Thigh  -3.57353 0.695267 -23.5584
L_Calf  3.15905 -1.9455 14.1264
L_Foot  2.59477 1.05294 10.7186
L_Toe0  5.63429 -1.13878 5.05441
R_Thigh  -0.921017 2.1721 0.611906
R_Calf  -2.57683 7.61093 24.5797
R_Foot  0.114707 -2.11706 -5.4895
R_Toe0  -1.78853 -0.272788 -17.3235
248
root  -1.39429 31.5401 7.05627 -91.6728 -5.05759 89.0442
Spine  -6.12155 -4.4887 -8.54969
Spine1  -3.97929 20.3444 7.21181
Neck  3.97569e-016 0 -2.38542e-015
Head  29.866 -6.80057 10.0173
R_Clavicle  0.357842 -18.6843 0.182667
R_UpperArm  15.5987 -0.479797 28.8752
R_Forearm  22.8442 -14.8544 12.6994
R_Hand  -1.00192 8.48093 -18.9035
L_Clavicle  -0.383824 14.7858 -3.03715
L_UpperArm  -7.37631 3.6311 12.4827
L_Forearm  -10.8813 28.6327 36.0067
L_Hand  -0.165696 -2.20858 -5.76185
L_Thigh  -2.95486 1.32058 -19.3799
L_Calf  2.81378 -0.394342 2.57601
L_Foot  1.20333 1.5621 3.87193
L_Toe0  3.20037 -1.2708 11.6182
R_Thigh  -0.207407 3.19519 0.746022
R_Calf  -3.24964 6.39775 20.4991
R_Foot  -0.316541 -1.67712 -1.28931
R_Toe0  -1.78853 -0.272788 -17.3235
249
root  -1.18377 31.189 5.88116 -92.1307 -5.5777 90.1066
Spine  -6.07052 -1.93563 -8.63198
Spine1  -3.72169 19.1421 8.42063
Neck  3.97569e-016 0 -2.38542e-015
Head  29.6089 -7.22662 10.1155
R_Clavicle  0.345303 -17.8094 0.26332
R_UpperArm  16.2171 -0.41803 24.6831
R_Forearm  21.3208 -10.9339 9.2024
R_Hand  -0.953858 8.44989 -18.5673
L_Clavicle  -0.420063 15.4618 -3.51195
L_UpperArm  -6.05334 6.27493 15.2948
L_Forearm  -10.586 30.0448 36.4529
L_Hand  -0.170808 -1.33171 -4.65627
L_Thigh  -2.19803 2.68669 -15.2551
L_Calf  2.88254 1.10049 -8.40294
L_Foot  0.0113792 4.3104 -4.43415
L_Toe0  0.0689261 -0.332459 10.8084
R_Thigh  0.323076 4.58069 -0.387527
R_Calf  -3.32476 5.21461 16.675
R_Foot  -0.661148 -0.929367 3.16372
R_Toe0  -1.78853 -0.272788 -17.3235
